<?xml version="1.0" encoding="UTF-8" standalone="no"?>
<!-- Created with Inkscape (http://www.inkscape.org/) -->

<svg
   width="1073.6394"
   height="1218.0746"
   viewBox="0 0 1073.6394 1218.0747"
   version="1.1"
   id="svg1"
   xmlns="http://www.w3.org/2000/svg"
   xmlns:svg="http://www.w3.org/2000/svg">
  <defs
     id="defs1" />
  <g
     id="layer1"
     transform="translate(-3.6802998,-3.6802998)"
     style="fill:#ffffff">
    <path
       id="rect2"
       style="fill-opacity:0;stroke:#ffffff;stroke-width:34.6394;stroke-linecap:round;stroke-linejoin:round"
       d="M 21,21 H 1060 V 1060 H 21 Z" />
  </g>
  <g
     id="layer2"
     transform="translate(-3.6802998,-3.6802998)"
     style="fill:#ffffff">
    <path
       d="m 483.72559,297.78358 q 0,24.90235 -8.71582,48.8086 -8.71582,23.65723 -24.90235,39.84375 -22.16308,21.91406 -49.55566,33.12012 -27.14356,11.20605 -67.73438,11.20605 h -59.5166 v 120.77637 h -95.625 v -370.7959 h 157.38281 q 35.36133,0 59.51661,6.22559 24.40429,5.97656 43.08105,18.17871 22.41211,14.69238 34.11621,37.60254 11.95313,22.91015 11.95313,55.03417 z m -98.86231,2.24122 q 0,-15.68848 -8.4668,-26.89454 -8.46679,-11.45507 -19.67285,-15.9375 -14.9414,-5.97656 -29.13574,-6.4746 -14.19434,-0.74708 -37.85156,-0.74708 h -16.43555 v 111.06446 h 27.39258 q 24.4043,0 40.09277,-2.98828 15.9375,-2.98828 26.64551,-11.95313 9.21387,-7.96875 13.19824,-18.92578 4.2334,-11.20605 4.2334,-27.14355 z M 1063.2031,180.74257 963.34473,551.53847 H 857.50977 L 791.02051,309.98573 726.27441,551.53847 H 620.43945 l -99.8584,-370.7959 h 99.8584 l 57.02637,255.24902 68.23242,-255.24902 h 95.37598 l 64.99512,255.24902 59.76562,-255.24902 z"
       id="text9"
       style="font-weight:800;font-size:510px;line-height:1.6;font-family:Montserrat;-inkscape-font-specification:'Montserrat Ultra-Bold';text-align:center;white-space:pre;fill:#ffffff;stroke:#ffffff;stroke-width:11.5843;stroke-linecap:round;stroke-linejoin:round;stroke-opacity:1"
       transform="matrix(0.98598584,0,0,1.0587165,-71.520852,-127.44055)"
       aria-label="PW" />
    <path
       d="m 655.76172,877.69661 q 15.79101,13.53516 25.13672,31.58203 9.3457,18.04688 9.3457,48.01758 0,33.83789 -13.53516,63.16408 -13.21289,29.3262 -40.92773,50.2734 -27.07031,20.3028 -63.80859,31.2598 -36.41602,10.6348 -88.62305,10.6348 -59.61914,0 -102.48047,-9.3458 -42.53906,-9.3457 -69.28711,-20.9472 V 976.95442 h 12.56836 q 27.71484,16.75782 66.06445,29.00388 38.67188,12.2461 70.57618,12.2461 18.6914,0 40.60546,-2.9004 21.91407,-3.2226 37.06055,-13.5351 11.92383,-8.05666 19.01367,-19.33596 7.08985,-11.60156 7.08985,-33.19336 0,-20.94727 -9.66797,-32.22656 -9.66797,-11.60157 -25.45899,-16.43555 -15.79101,-5.15625 -38.02734,-5.47852 -22.23633,-0.64453 -41.25,-0.64453 h -26.42578 v -85.72265 h 27.39258 q 25.13672,0 44.47265,-1.61133 19.33594,-1.61133 32.8711,-7.41211 14.17968,-6.12305 21.26953,-16.11328 7.08984,-10.3125 7.08984,-29.9707 0,-14.50196 -7.41211,-23.20313 -7.41211,-9.02344 -18.6914,-14.17969 -12.56836,-5.80078 -29.64844,-7.73437 -17.08008,-1.9336 -29.32617,-1.9336 -30.29297,0 -65.74219,10.63477 -35.44922,10.3125 -68.64258,29.9707 H 325.43945 V 643.08724 q 26.42578,-10.63477 71.86524,-20.30274 45.43945,-9.99023 92.16797,-9.99023 45.43945,0 79.59961,8.05664 34.16015,7.73437 56.39648,20.94726 26.42578,15.79102 39.31641,38.34961 12.89062,22.5586 12.89062,52.85157 0,39.96093 -24.81445,71.54296 -24.81446,31.25977 -65.41992,39.96094 v 4.51172 q 16.43554,2.25586 34.80468,9.02344 18.36914,6.76758 33.51563,19.6582 z m 594.58008,-14.50195 q 0,67.03125 -30.6152,120.20508 -30.6153,52.85156 -77.3438,81.21096 -35.1269,21.2695 -77.0215,29.6484 -41.8945,8.3789 -99.25778,8.3789 H 796.91406 V 622.7845 H 970.9375 q 58.6523,0 101.1914,9.99024 42.5391,9.66796 71.543,27.71484 49.6289,30.29297 77.9883,81.85547 28.6816,51.24023 28.6816,120.84961 z m -127.9395,-0.9668 q 0,-47.37305 -17.4023,-80.88867 -17.0801,-33.83789 -54.4629,-52.85156 -19.0137,-9.34571 -38.9941,-12.56836 -19.65823,-3.54492 -59.61917,-3.54492 h -31.25977 v 300.35155 h 31.25977 q 44.15039,0 64.77537,-3.8672 20.625,-4.1894 40.2832,-14.8242 33.8379,-19.33594 49.6289,-51.5625 15.791,-32.54883 15.791,-80.24414 z"
       id="text10"
       style="font-weight:800;font-size:660px;line-height:1.6;font-family:Montserrat;-inkscape-font-specification:'Montserrat Ultra-Bold';text-align:center;white-space:pre;fill:#ffffff;stroke:#ffffff;stroke-width:11.5843;stroke-linecap:round;stroke-linejoin:round;stroke-opacity:1"
       transform="matrix(0.99075707,0,0,1.0179021,-217.53842,-140.53633)"
       aria-label="3D" />
    <path
       d="m 114.08208,1147.5041 q 0,16.61 -14.118503,27.029 -14.042999,10.3435 -38.202998,10.3435 -13.967499,0 -24.386499,-2.416 -10.343499,-2.4915 -19.403499,-6.2665 v -26.9535 h 3.171 q 8.9845,7.1725 20.082999,11.023 11.174,3.8505 21.441999,3.8505 2.6425,0 6.946,-0.453 4.3035,-0.453 7.021499,-1.51 3.322,-1.359 5.436,-3.3975 2.1895,-2.0385 2.1895,-6.04 0,-3.6995 -3.171,-6.342 -3.0955,-2.718 -9.135499,-4.1525 -6.342,-1.51 -13.439,-2.7935 -7.021499,-1.359 -13.212499,-3.3975 -14.193999,-4.6055 -20.460499,-12.4575 -6.191,-7.9275 -6.191,-19.63 0,-15.704 14.042999,-25.5945 14.1185,-9.966 36.239999,-9.966 11.098499,0 21.894999,2.1895 10.872002,2.114 18.799502,5.3605 v 25.8965 h -3.0955 q -6.795003,-5.436 -16.685502,-9.06 -9.815,-3.6995 -20.082999,-3.6995 -3.624,0 -7.248,0.5285 -3.5485,0.453 -6.8705,1.812 -2.944499,1.1325 -5.058499,3.473 -2.114,2.265 -2.114,5.2095 0,4.4545 3.3975,6.8705 3.397499,2.3405 12.834999,4.3035 6.191,1.2835 11.853499,2.4915 5.738,1.208 12.3065,3.322 12.910502,4.228 19.026002,11.5515 6.191,7.248 6.191,18.875 z m 136.91169,-20.838 q 0,26.878 -15.402,42.733 -15.402,15.7795 -42.582,15.7795 -27.1045,0 -42.5065,-15.7795 -15.40199,-15.855 -15.40199,-42.733 0,-27.1045 15.40199,-42.8085 15.402,-15.7795 42.5065,-15.7795 27.029,0 42.5065,15.7795 15.4775,15.704 15.4775,42.8085 z m -38.4295,28.4635 q 4.228,-5.134 6.2665,-12.08 2.0385,-7.0215 2.0385,-16.459 0,-10.117 -2.3405,-17.214 -2.3405,-7.097 -6.1155,-11.476 -3.8505,-4.53 -8.909,-6.5685 -4.983,-2.0385 -10.419,-2.0385 -5.5115,0 -10.419,1.963 -4.832,1.963 -8.909,6.493 -3.775,4.228 -6.191,11.7025 -2.3405,7.399 -2.3405,17.214 0,10.0415 2.265,17.1385 2.3405,7.0215 6.1155,11.476 3.775,4.4545 8.8335,6.5685 5.0585,2.114 10.6455,2.114 5.587,0 10.6455,-2.114 5.0585,-2.1895 8.8335,-6.7195 z m 149.36918,27.7085 h -81.08699 v -112.4195 h 28.992 v 90.6755 h 52.09499 z m 123.6237,-40.6945 q 0,20.838 -12.684,31.9365 -12.684,11.0985 -37.3725,11.0985 -24.6885,0 -37.3725,-11.0985 -12.6085,-11.0985 -12.6085,-31.861 v -71.8005 h 29.143 v 70.1395 q 0,11.7025 4.9075,17.4405 4.9075,5.738 15.9305,5.738 10.872,0 15.855,-5.5115 5.0585,-5.5115 5.0585,-17.667 v -70.1395 h 29.143 z m 122.79322,-49.981 h -35.1075 v 90.6755 h -28.992 v -90.6755 h -35.1075 v -21.744 h 99.207 z m 85.94918,90.6755 h -65.83599 v -19.932 h 18.42199 v -72.5555 h -18.42199 v -19.932 h 65.83599 v 19.932 h -18.422 v 72.5555 h 18.422 z m 140.6867,-56.172 q 0,26.878 -15.402,42.733 -15.402,15.7795 -42.582,15.7795 -27.1045,0 -42.5065,-15.7795 -15.402,-15.855 -15.402,-42.733 0,-27.1045 15.402,-42.8085 15.402,-15.7795 42.5065,-15.7795 27.029,0 42.5065,15.7795 15.4775,15.704 15.4775,42.8085 z m -38.4295,28.4635 q 4.228,-5.134 6.2665,-12.08 2.0385,-7.0215 2.0385,-16.459 0,-10.117 -2.3405,-17.214 -2.3405,-7.097 -6.1155,-11.476 -3.8505,-4.53 -8.909,-6.5685 -4.983,-2.0385 -10.419,-2.0385 -5.5115,0 -10.419,1.963 -4.832,1.963 -8.909,6.493 -3.775,4.228 -6.191,11.7025 -2.3405,7.399 -2.3405,17.214 0,10.0415 2.265,17.1385 2.3405,7.0215 6.1155,11.476 3.775,4.4545 8.8335,6.5685 5.0585,2.114 10.6455,2.114 5.587,0 10.6455,-2.114 5.0585,-2.1895 8.8335,-6.7195 z m 170.50919,27.7085 h -27.93499 l -47.716,-77.161 v 77.161 h -26.576 v -112.4195 h 34.6545 l 40.9965,64.4015 v -64.4015 h 26.57599 z m 126.41716,-35.334 q 0,16.61 -14.1185,27.029 -14.043,10.3435 -38.203,10.3435 -13.9675,0 -24.3865,-2.416 -10.3435,-2.4915 -19.40346,-6.2665 v -26.9535 h 3.17096 q 8.9845,7.1725 20.083,11.023 11.174,3.8505 21.442,3.8505 2.6425,0 6.946,-0.453 4.3035,-0.453 7.0215,-1.51 3.322,-1.359 5.436,-3.3975 2.1895,-2.0385 2.1895,-6.04 0,-3.6995 -3.171,-6.342 -3.0955,-2.718 -9.1355,-4.1525 -6.342,-1.51 -13.439,-2.7935 -7.0215,-1.359 -13.2125,-3.3975 -14.194,-4.6055 -20.4605,-12.4575 -6.19096,-7.9275 -6.19096,-19.63 0,-15.704 14.04296,-25.5945 14.1185,-9.966 36.24,-9.966 11.0985,0 21.895,2.1895 10.872,2.114 18.7995,5.3605 v 25.8965 h -3.0955 q -6.795,-5.436 -16.6855,-9.06 -9.815,-3.6995 -20.083,-3.6995 -3.624,0 -7.248,0.5285 -3.5485,0.453 -6.8705,1.812 -2.9445,1.1325 -5.0585,3.473 -2.114,2.265 -2.114,5.2095 0,4.4545 3.3975,6.8705 3.3975,2.3405 12.835,4.3035 6.191,1.2835 11.8535,2.4915 5.738,1.208 12.3065,3.322 12.9105,4.228 19.026,11.5515 6.191,7.248 6.191,18.875 z"
       id="text11"
       style="font-weight:800;font-size:154.624px;line-height:1.6;font-family:Montserrat;-inkscape-font-specification:'Montserrat Ultra-Bold';text-align:center;letter-spacing:7.7312px;text-anchor:middle;fill:#ffffff;stroke:#ffffff;stroke-width:11.1951;stroke-linecap:round;stroke-linejoin:round;stroke-opacity:1"
       transform="scale(0.97464407,1.0260156)"
       aria-label="SOLUTIONS" />
  </g>
</svg>
